<?xml version="1.0" standalone="no"?><!DOCTYPE svg PUBLIC "-//W3C//DTD SVG 1.1//EN" "http://www.w3.org/Graphics/SVG/1.1/DTD/svg11.dtd"><svg t="1582429954926" class="icon" viewBox="0 0 1024 1024" version="1.1" xmlns="http://www.w3.org/2000/svg" p-id="4568" width="60" height="60" xmlns:xlink="http://www.w3.org/1999/xlink"><defs><style type="text/css"></style></defs><path d="M409.33686200921176 733.2567629111817c-8.850270516447267 0-15.930486929605081-7.080216413157812-15.930486929605081-15.930486929605081 0-4.425135258223634 1.770054103289453-8.4077569906249 4.867648784045995-11.062838145559084L592.5374616996701 512 398.2740238636526 317.7365621639825c-2.6550811549341793-2.6550811549341793-4.867648784045995-6.637702887335449-4.867648784045995-11.062838145559084 0-8.850270516447267 7.080216413157812-15.930486929605081 15.930486929605081-15.930486929605081 4.425135258223634 0 8.4077569906249 1.770054103289453 11.062838145559084 4.867648784045995l205.3262759815766 205.3262759815766c3.0975946807565435 2.6550811549341793 4.867648784045995 6.637702887335449 4.867648784045995 11.062838145559084s-1.770054103289453 8.4077569906249-4.867648784045995 11.062838145559084L420.3997001547708 728.8316276529581c-2.6550811549341793 2.6550811549341793-6.637702887335449 4.425135258223634-11.062838145559084 4.425135258223634z m0 0" p-id="4569" fill="#8a8a8a"></path></svg>