<?xml version="1.0" standalone="no"?><!DOCTYPE svg PUBLIC "-//W3C//DTD SVG 1.1//EN" "http://www.w3.org/Graphics/SVG/1.1/DTD/svg11.dtd"><svg t="1582361250899" class="icon" viewBox="0 0 1024 1024" version="1.1" xmlns="http://www.w3.org/2000/svg" p-id="3503" width="60" height="60" xmlns:xlink="http://www.w3.org/1999/xlink"><defs><style type="text/css"></style></defs><path d="M696.967934 787.999737a14.961301 14.961301 0 0 1-11.133992-17.396862 14.265427 14.265427 0 0 1 17.396862-11.133992 468.497494 468.497494 0 0 1 140.566645 46.797559c36.011504 19.484485 56.365833 45.231841 56.365833 72.023009 0 41.230563-45.927716 76.024287-120.734222 100.379894a918.902251 918.902251 0 0 1-271.04311 36.881347 918.902251 918.902251 0 0 1-270.869142-36.881347C162.88427 954.313738 117.304492 919.520014 117.304492 878.289451c0-26.791167 21.224172-52.190586 57.93155-73.588726a476.674019 476.674019 0 0 1 142.654269-45.753748 13.395584 13.395584 0 0 1 17.396862 11.133992 14.265427 14.265427 0 0 1-11.133992 17.396862 426.918994 426.918994 0 0 0-133.781869 43.492155c-27.834979 15.657176-43.492155 32.358163-43.492155 48.015339 0 26.791167 37.925159 52.190586 100.379894 72.544915a864.102136 864.102136 0 0 0 261.996742 35.663567 864.102136 864.102136 0 0 0 261.996741-35.663567c62.454735-20.006391 100.379894-45.753747 100.379894-72.544915 0-15.657176-14.439395-32.358163-42.448343-48.015339a413.52341 413.52341 0 0 0-131.520277-42.448343z m50.102962-195.192792L530.827902 809.04994a32.358163 32.358163 0 0 1-44.535967 0L269.874971 592.806945a340.630558 340.630558 0 0 1 0-478.413705 336.803248 336.803248 0 0 1 575.488196 238.684947 337.499123 337.499123 0 0 1-98.292271 239.728758z m-238.684946-365.334102a120.560254 120.560254 0 0 1 85.940498 35.663567 124.387563 124.387563 0 0 1 34.793724 85.940499 120.473269 120.473269 0 1 1-240.946539 0 124.387563 124.387563 0 0 1 34.793724-85.940499 120.560254 120.560254 0 0 1 85.940498-35.663567z m64.716326 55.669959a91.507494 91.507494 0 0 0-129.432653 0 92.899243 92.899243 0 0 0 0 130.476465 91.507494 91.507494 0 0 0 129.432653 0 92.899243 92.899243 0 0 0 0-130.476465z m-63.498546 504.508998l217.460775-216.069026a307.054614 307.054614 0 0 0 89.245902-218.504587 304.445085 304.445085 0 0 0-89.245902-217.460775 309.664144 309.664144 0 0 0-437.183142 0 304.445085 304.445085 0 0 0-89.245902 217.460775 307.054614 307.054614 0 0 0 89.245902 218.504587l217.460775 217.460775z" fill="#8a8a8a" p-id="3504"></path><path d="M508.559918 1023.901186a924.991153 924.991153 0 0 1-273.652639-37.229285C152.098216 959.532796 108.606061 922.129543 108.606061 878.289451c0-29.574665 21.572109-57.583613 62.280766-81.069377a487.112136 487.112136 0 0 1 145.437766-46.62359 20.876234 20.876234 0 0 1 17.396862 2.783498 22.267983 22.267983 0 0 1 9.916211 15.483207 22.441952 22.441952 0 0 1-18.440673 26.44323 417.524688 417.524688 0 0 0-131.346309 42.448343c-24.877513 13.91749-39.14294 28.704822-39.142939 40.534689 0 21.224172 34.793724 45.40581 94.464961 64.368389a856.273548 856.273548 0 0 0 259.387212 34.793724 855.751642 855.751642 0 0 0 259.387213-34.793724c59.149331-18.96258 94.464961-43.144218 94.46496-64.368389 0-12.177803-13.91749-26.965136-37.925159-40.534689a405.694822 405.694822 0 0 0-128.910747-41.404531 24.877513 24.877513 0 0 1-14.091459-10.438117 21.572109 21.572109 0 0 1-2.783497-17.396862 22.615921 22.615921 0 0 1 26.095293-17.396862 478.239737 478.239737 0 0 1 143.176174 46.62359c39.490877 21.572109 61.236954 49.928994 61.236954 79.851596 0 43.840092-43.666124 81.243346-126.301218 108.382451a924.817184 924.817184 0 0 1-274.348514 37.925159zM321.369683 766.949534h-1.21778a473.890521 473.890521 0 0 0-140.914583 44.883904c-34.793724 19.832423-53.756304 43.492155-53.756303 66.108076 0 34.793724 40.708657 68.02173 114.64532 92.203368a907.942228 907.942228 0 0 0 268.433581 36.359442 907.76826 907.76826 0 0 0 268.433581-36.359442c73.762695-24.181638 114.471352-57.061707 114.471352-92.203368 0-23.485764-18.614642-46.62359-52.190586-65.064264a461.190812 461.190812 0 0 0-137.957116-45.927716c-2.609529 0-6.26287 1.043812-6.784776 4.001278a5.914933 5.914933 0 0 0 0 5.219059 8.002557 8.002557 0 0 0 4.175247 3.131435 421.004061 421.004061 0 0 1 133.955837 43.318186c30.444509 17.396862 46.449622 36.185473 46.449622 55.322022 0 38.447065-57.757582 65.064264-106.294827 80.547471a872.45263 872.45263 0 0 1-264.606271 36.185473 872.800567 872.800567 0 0 1-264.78024-36.185473c-48.363276-15.483207-106.120858-42.100406-106.120858-80.547471 0-18.614642 17.396862-37.925159 47.84137-55.322022a434.92155 434.92155 0 0 1 136.565367-44.361998 5.914933 5.914933 0 0 0 4.175247-7.132713 5.219059 5.219059 0 0 0-2.261592-3.653341 4.523184 4.523184 0 0 0-2.261592-0.521906z m187.190235 59.671237a44.188029 44.188029 0 0 1-27.834979-11.481929L263.78607 598.721878a344.631836 344.631836 0 0 1-100.553863-245.643691 345.327711 345.327711 0 1 1 690.481453 0 344.631836 344.631836 0 0 1-100.553862 245.81766L536.916803 815.138842a44.535967 44.535967 0 0 1-28.356885 11.481929z m0-801.82137A326.5391 326.5391 0 0 0 180.281132 353.078187a327.75688 327.75688 0 0 0 95.682741 233.639857l216.242995 216.416963a24.877513 24.877513 0 0 0 33.228006 0l215.721089-215.895058a327.75688 327.75688 0 0 0 95.682741-233.639856A326.5391 326.5391 0 0 0 508.559918 24.799401z m4.523184 772.942579h-9.220337L283.96643 577.671675a314.883202 314.883202 0 0 1-91.681463-224.593488A316.796857 316.796857 0 0 1 733.153407 129.52851a313.143516 313.143516 0 0 1 91.681462 223.549677 315.057171 315.057171 0 0 1-91.681462 224.593488z m-4.523184-744.063788a300.617775 300.617775 0 0 0-212.589654 511.81568l212.589654 212.589654 212.589654-212.589654a298.008246 298.008246 0 0 0 86.98431-212.589654 298.008246 298.008246 0 0 0-299.226027-299.226026z m0 424.83137a129.084716 129.084716 0 0 1-91.855431-38.099128 130.824402 130.824402 0 0 1-37.055316-90.81162 132.738057 132.738057 0 0 1 36.881347-91.159556 129.606622 129.606622 0 0 1 183.884832 0 132.912026 132.912026 0 0 1 37.055316 91.855431 130.824402 130.824402 0 0 1-37.055316 90.81162 129.084716 129.084716 0 0 1-91.855432 37.577222z m0-241.990351a112.20976 112.20976 0 0 0-79.851596 33.228007 115.689132 115.689132 0 0 0-32.010227 79.851596 113.42754 113.42754 0 0 0 32.010227 78.807785 112.731666 112.731666 0 0 0 159.703193 0 113.42754 113.42754 0 0 0 32.010226-78.807785 115.863101 115.863101 0 0 0-32.184195-80.025565 112.20976 112.20976 0 0 0-79.677628-32.880069z m0 212.937591a97.944333 97.944333 0 0 1-70.63126-29.226728 101.423706 101.423706 0 0 1 0-142.4803 100.031957 100.031957 0 0 1 141.26252 0 101.423706 101.423706 0 0 1 0 142.4803 97.944333 97.944333 0 0 1-70.63126 29.574666z m0-184.0588a86.98431 86.98431 0 0 0-58.801393 24.529576 84.374781 84.374781 0 0 0 0 118.298661 82.983032 82.983032 0 0 0 117.254849 0 84.374781 84.374781 0 0 0 0-118.298661 86.98431 86.98431 0 0 0-58.453456-24.355607z" fill="#8a8a8a" p-id="3505"></path></svg>