<?xml version="1.0" standalone="no"?><!DOCTYPE svg PUBLIC "-//W3C//DTD SVG 1.1//EN" "http://www.w3.org/Graphics/SVG/1.1/DTD/svg11.dtd"><svg t="1582430003235" class="icon" viewBox="0 0 1024 1024" version="1.1" xmlns="http://www.w3.org/2000/svg" p-id="5447" width="60" height="60" xmlns:xlink="http://www.w3.org/1999/xlink"><defs><style type="text/css"></style></defs><path d="M268.02606186 934.30899284a117.44211993 117.44211993 0 0 1-117.2812403-117.2812403V206.97224746A117.44211993 117.44211993 0 0 1 268.02606186 89.69100716h488.02831609a117.44211993 117.44211993 0 0 1 117.2812403 117.2812403v609.97506528a117.44211993 117.44211993 0 0 1-117.2812403 117.28124029z m0-792.97562884a65.79976308 65.79976308 0 0 0-65.71932328 65.71932326v609.97506528a65.79976308 65.79976308 0 0 0 65.71932328 65.71932326h488.02831609a65.79976308 65.79976308 0 0 0 65.71932328-65.71932326V206.97224746a65.79976308 65.79976308 0 0 0-65.71932328-65.71932326z" fill="#6ebe47" p-id="5448"></path><path d="M318.94446042 537.82117841a25.82117841 25.82117841 0 1 1 0-51.56191701h386.11107916a25.82117841 25.82117841 0 1 1 0 51.56191701zM318.94446042 659.76792758a25.82117841 25.82117841 0 1 1 0-51.24015779h263.44037172a25.82117841 25.82117841 0 1 1 0 51.64235684zM318.94446042 415.47223021a25.82117841 25.82117841 0 1 1 0-51.64235684h386.11107916a25.82117841 25.82117841 0 1 1 0 51.64235684z" fill="#6ebe47" p-id="5449"></path></svg>