<?xml version="1.0" standalone="no"?><!DOCTYPE svg PUBLIC "-//W3C//DTD SVG 1.1//EN" "http://www.w3.org/Graphics/SVG/1.1/DTD/svg11.dtd"><svg t="1582430344947" class="icon" viewBox="0 0 1024 1024" version="1.1" xmlns="http://www.w3.org/2000/svg" p-id="8682" width="60" height="60" xmlns:xlink="http://www.w3.org/1999/xlink"><defs><style type="text/css"></style></defs><path d="M870.4 774.4h-51.2V409.6c0-32-25.6-57.6-57.6-57.6H588.8v416H576V224c0-32-25.6-57.6-57.6-57.6H268.8c-32 0-57.6 25.6-57.6 57.6v550.4h-44.8c-12.8 0-25.6 12.8-25.6 32 0 12.8 12.8 25.6 25.6 25.6h704c12.8 0 25.6-12.8 25.6-32 0-12.8-12.8-25.6-25.6-25.6z m-499.2-128c0 6.4 0 6.4-6.4 6.4h-64c-6.4 0-6.4 0-6.4-6.4v-19.2c0-6.4 0-6.4 6.4-6.4h57.6c6.4 0 6.4 0 6.4 6.4l6.4 19.2z m0-140.8c0 6.4 0 6.4-6.4 6.4h-64c-6.4 0-6.4 0-6.4-6.4V480c0-6.4 0-6.4 6.4-6.4h57.6c6.4 0 6.4 0 6.4 6.4l6.4 25.6z m0-147.2c0 6.4 0 6.4-6.4 6.4h-64c-6.4 0-6.4 0-6.4-6.4v-19.2c0-6.4 0-6.4 6.4-6.4h57.6c6.4 0 6.4 0 6.4 6.4l6.4 19.2z m121.6 288c0 6.4 0 6.4-6.4 6.4h-64c-6.4 0-6.4 0-6.4-6.4v-19.2c0-6.4 0-6.4 6.4-6.4H480c6.4 0 6.4 0 6.4 6.4v19.2h6.4z m0-140.8c0 6.4 0 6.4-6.4 6.4h-64c-6.4 0-6.4 0-6.4-6.4V480c0-6.4 0-6.4 6.4-6.4H480c6.4 0 6.4 0 6.4 6.4v25.6h6.4z m0-147.2c0 6.4 0 6.4-6.4 6.4h-64c-6.4 0-6.4 0-6.4-6.4v-19.2c0-6.4 0-6.4 6.4-6.4H480c6.4 0 6.4 0 6.4 6.4v19.2h6.4z m224 288c0 6.4 0 6.4-6.4 6.4h-57.6c-6.4 0-6.4 0-6.4-6.4v-19.2c0-6.4 0-6.4 6.4-6.4h57.6c6.4 0 6.4 0 6.4 6.4v19.2z m0-140.8c0 6.4 0 6.4-6.4 6.4h-57.6c-6.4 0-6.4 0-6.4-6.4V480c0-6.4 0-6.4 6.4-6.4h57.6c6.4 0 6.4 0 6.4 6.4v25.6z" fill="#69B414" p-id="8683"></path></svg>