<?xml version="1.0" standalone="no"?><!DOCTYPE svg PUBLIC "-//W3C//DTD SVG 1.1//EN" "http://www.w3.org/Graphics/SVG/1.1/DTD/svg11.dtd"><svg t="1582430104617" class="icon" viewBox="0 0 1024 1024" version="1.1" xmlns="http://www.w3.org/2000/svg" p-id="7059" width="60" height="60" xmlns:xlink="http://www.w3.org/1999/xlink"><defs><style type="text/css"></style></defs><path d="M983.04 122.88c0-45.056-36.864-81.92-81.92-81.92H122.88C77.824 40.96 40.96 77.824 40.96 122.88L0 901.12c0 45.056 36.864 81.92 81.92 81.92h860.16c45.056 0 81.92-36.864 81.92-81.92L983.04 122.88zM772.096 393.216C757.76 524.288 647.168 624.64 512 624.64s-245.76-102.4-260.096-233.472c-22.528-10.24-36.864-30.72-36.864-57.344 0-34.816 26.624-61.44 61.44-61.44s61.44 26.624 61.44 61.44c0 28.672-18.432 51.2-43.008 59.392 14.336 106.496 106.496 190.464 217.088 190.464s202.752-81.92 217.088-190.464c-24.576-8.192-43.008-30.72-43.008-59.392 0-34.816 26.624-61.44 61.44-61.44s61.44 26.624 61.44 61.44c0 28.672-16.384 49.152-36.864 59.392z" fill="#d81e06" p-id="7060"></path></svg>