<?xml version="1.0" standalone="no"?><!DOCTYPE svg PUBLIC "-//W3C//DTD SVG 1.1//EN" "http://www.w3.org/Graphics/SVG/1.1/DTD/svg11.dtd"><svg t="1582430299154" class="icon" viewBox="0 0 1219 1024" version="1.1" xmlns="http://www.w3.org/2000/svg" p-id="7891" width="71.42578125" height="60" xmlns:xlink="http://www.w3.org/1999/xlink"><defs><style type="text/css"></style></defs><path d="M1054.169106 976.712999H126.44544A126.776449 126.776449 0 0 1 0 850.267559V126.492727A126.823736 126.823736 0 0 1 126.44544 0h927.723666a126.823736 126.823736 0 0 1 126.44544 126.492727v723.774832A126.776449 126.776449 0 0 1 1054.169106 976.712999" fill="#FFCC66" p-id="7892"></path><path d="M1.560471 761.793581H1182.175017v-139.023782H1.560471zM739.474117 273.460725l48.611037-143.894343h38.538905l-65.539783 185.175895h-42.842022l-60.527361-185.175895h38.30247zM852.442761 314.22212h36.647426V128.998938h-36.647426zM950.090418 210.569014h60.811083a24.58924 24.58924 0 0 0 13.24036-2.931794 18.9148 18.9148 0 0 0 7.045763-10.072131 40.288525 40.288525 0 0 0 2.36435-12.625629 27.42646 27.42646 0 0 0-3.546525-13.476795 18.158208 18.158208 0 0 0-7.849642-8.038791 23.596213 23.596213 0 0 0-8.889956-2.175202h-63.175433v49.320342z m0 32.249735v71.781667h-33.952067V129.566382H1007.213115c5.67444 0 12.010898 0.425583 18.9148 1.229462 7.045763 0.803879 13.71323 3.026368 20.238836 6.525606 6.478319 3.546525 11.679889 9.4574 15.604711 17.732625 3.924821 8.227938 6.052736 17.590764 6.383745 28.088479 0.283722 10.497714-0.94574 19.624105-3.499238 27.42646-3.31009 9.693835-7.849642 16.739598-13.618657 21.184576a46.435835 46.435835 0 0 1-18.158208 8.889957c-6.336458 1.41861-14.989979 2.175202-25.865989 2.175202h-57.217271z" fill="#FFFFFF" p-id="7893"></path></svg>