<?xml version="1.0" standalone="no"?><!DOCTYPE svg PUBLIC "-//W3C//DTD SVG 1.1//EN" "http://www.w3.org/Graphics/SVG/1.1/DTD/svg11.dtd"><svg t="1581913099354" class="icon" viewBox="0 0 1024 1024" version="1.1" xmlns="http://www.w3.org/2000/svg" p-id="2710" width="60" height="60" xmlns:xlink="http://www.w3.org/1999/xlink"><defs><style type="text/css"></style></defs><path d="M512 0a512 512 0 1 0 512 512A512 512 0 0 0 512 0z m47.253333 705.386667a10.666667 10.666667 0 0 1-10.666666 10.666666H486.4a10.666667 10.666667 0 0 1-10.666667-10.666666v-93.76a41.6 41.6 0 1 1 83.306667 0z m119.36 6.08a10.666667 10.666667 0 0 1-21.333333 0V539.733333a41.386667 41.386667 0 0 0-41.386667-41.386666H407.68a41.386667 41.386667 0 0 0-41.386667 41.386666v171.733334a10.666667 10.666667 0 0 1-21.333333 0V539.733333a62.826667 62.826667 0 0 1 62.72-62.72h208.213333a62.826667 62.826667 0 0 1 62.72 62.72zM743.253333 490.666667a10.666667 10.666667 0 0 1-14.933333 2.133333L515.84 334.613333 295.466667 493.12a10.666667 10.666667 0 0 1-12.48-17.28l226.666666-163.093333a10.666667 10.666667 0 0 1 12.586667 0l218.88 163.2a10.666667 10.666667 0 0 1 2.133333 14.72z" fill="#2c2c2c" p-id="2711"></path></svg>